<svg width="1080" height="226" viewBox="0 0 1080 226" fill="none" xmlns="http://www.w3.org/2000/svg">
<path d="M20.084 92.2316C20.084 92.2316 53.2433 76.9254 79.0868 65.1698M168.341 134.457L211.014 114.602C263.858 82.5916 212.704 4.39106 169.766 23.9222C146.716 34.4072 109.041 51.5444 79.0868 65.1698M79.0868 65.1698L138.715 199.4" stroke="#D61C4E" stroke-width="40" stroke-linecap="round"/>
<path d="M315.663 162.765C315.663 163.986 315.398 164.84 314.869 165.329C314.381 165.776 313.526 166 312.306 166H299.305C298.084 166 297.21 165.776 296.681 165.329C296.192 164.84 295.948 163.986 295.948 162.765V94.5278H277.76C276.783 94.5278 276.051 94.3651 275.562 94.0396C274.505 93.3071 273.406 92.4323 272.267 91.415C271.168 90.3978 269.968 89.1771 268.666 87.7529C268.259 87.224 268.055 86.7967 268.055 86.4712C268.055 86.105 268.259 85.6981 268.666 85.2505C269.968 83.8263 271.168 82.6056 272.267 81.5884C273.406 80.5711 274.505 79.6963 275.562 78.9639C276.132 78.6383 276.865 78.4756 277.76 78.4756H333.912C334.889 78.4756 335.621 78.6383 336.109 78.9639C337.167 79.6963 338.266 80.5711 339.405 81.5884C340.545 82.6056 341.745 83.8263 343.006 85.2505C343.413 85.7795 343.617 86.2067 343.617 86.5322C343.617 86.8984 343.413 87.3053 343.006 87.7529C341.745 89.1771 340.545 90.3978 339.405 91.415C338.266 92.4323 337.167 93.3071 336.109 94.0396C335.54 94.3651 334.807 94.5278 333.912 94.5278H315.663V162.765ZM351.551 167.526C345.57 167.526 340.809 165.858 337.269 162.521C333.77 159.144 332.02 154.505 332.02 148.605C332.02 145.553 332.569 142.725 333.668 140.121C334.807 137.476 336.76 135.157 339.527 133.163C342.335 131.129 346.241 129.501 351.246 128.28C356.292 127.06 362.721 126.347 370.533 126.144C370.533 122.441 369.597 119.776 367.726 118.148C365.895 116.521 363.128 115.707 359.425 115.707C356.088 115.707 353.362 116.277 351.246 117.416C349.13 118.555 347.808 119.328 347.279 119.735C346.709 120.224 346.017 120.407 345.204 120.285C344.105 120.122 342.925 119.837 341.664 119.43C340.443 119.023 339.12 118.555 337.696 118.026C337.493 117.945 337.269 117.823 337.025 117.66C336.781 117.457 336.638 117.172 336.598 116.806C336.598 116.602 336.618 116.358 336.659 116.073C336.699 115.748 336.801 115.178 336.964 114.364C337.127 113.55 337.371 112.554 337.696 111.374C338.022 110.153 338.327 109.217 338.612 108.566C338.978 107.874 339.588 107.223 340.443 106.613C341.135 106.043 343.23 105.128 346.729 103.866C350.229 102.605 355.295 101.974 361.927 101.974C380.197 101.974 389.332 110.865 389.332 128.646V163.192C389.332 163.965 389.108 164.637 388.661 165.207C388.254 165.736 387.542 166 386.524 166H377.369C376.718 166 376.128 165.919 375.599 165.756C375.111 165.552 374.643 165.186 374.195 164.657L370.411 159.774H369.984C368.112 162.501 365.589 164.474 362.416 165.695C359.282 166.916 355.661 167.526 351.551 167.526ZM358.265 153.366C362.009 153.366 364.837 152.41 366.749 150.497C368.661 148.585 369.882 146.611 370.411 144.577V137.802C364.755 137.802 360.503 138.249 357.655 139.145C354.847 139.999 352.975 141.138 352.04 142.562C351.104 143.946 350.636 145.451 350.636 147.079C350.636 149.439 351.368 151.087 352.833 152.023C354.298 152.918 356.109 153.366 358.265 153.366ZM424.488 162.765C424.488 163.986 424.224 164.84 423.695 165.329C423.207 165.776 422.352 166 421.131 166H408.558C407.337 166 406.463 165.776 405.934 165.329C405.445 164.84 405.201 163.986 405.201 162.765V80.1846C405.201 79.208 405.405 78.4552 405.812 77.9263C407.521 75.6883 410.023 73.2673 413.319 70.6631C413.889 70.2562 414.397 70.0527 414.845 70.0527C415.374 70.0527 415.882 70.2562 416.371 70.6631C418.12 72.0059 419.585 73.2673 420.765 74.4473C421.986 75.6273 423.023 76.7869 423.878 77.9263C424.285 78.4552 424.488 79.208 424.488 80.1846V128.097H425.221C431.406 128.097 435.597 126.999 437.794 124.801C440.032 122.563 441.151 119.471 441.151 115.524V112.228C441.151 111.251 441.354 110.499 441.761 109.97C443.47 107.732 445.973 105.311 449.269 102.707C449.838 102.3 450.347 102.096 450.794 102.096C451.323 102.096 451.832 102.3 452.32 102.707C454.07 104.049 455.535 105.311 456.715 106.491C457.936 107.671 458.973 108.83 459.828 109.97C460.235 110.499 460.438 111.251 460.438 112.228V115.524C460.438 117.843 459.97 120.407 459.034 123.214C458.139 126.022 456.491 128.504 454.09 130.661C451.69 132.817 448.272 134.079 443.836 134.445V134.75C447.254 136.256 450.204 138.249 452.687 140.731C455.169 143.214 457.244 145.879 458.912 148.727C460.58 151.535 461.862 154.241 462.757 156.845C463.693 159.408 464.304 161.585 464.588 163.375C464.873 165.125 464.283 166 462.818 166H446.766C445.383 166 444.589 165.166 444.386 163.498C444.101 161.585 443.47 159.347 442.494 156.784C441.558 154.18 440.276 151.636 438.648 149.154C437.062 146.672 435.129 144.617 432.85 142.99C430.612 141.321 428.069 140.487 425.221 140.487H424.488V162.765ZM496.571 167.526C482.085 167.526 474.842 158.757 474.842 141.22L474.781 110.214C474.781 109.237 474.985 108.485 475.392 107.956C477.101 105.718 479.603 103.297 482.899 100.692C483.469 100.285 483.977 100.082 484.425 100.082C484.954 100.082 485.462 100.285 485.951 100.692C487.7 102.035 489.165 103.297 490.345 104.477C491.566 105.657 492.604 106.816 493.458 107.956C493.865 108.485 494.068 109.237 494.068 110.214V139.511C494.068 148.34 497.568 152.755 504.566 152.755C508.025 152.755 510.792 151.555 512.867 149.154C514.942 146.713 515.98 143.417 515.98 139.267V110.214C515.98 109.237 516.183 108.485 516.59 107.956C518.299 105.718 520.802 103.297 524.098 100.692C524.667 100.285 525.176 100.082 525.624 100.082C526.153 100.082 526.661 100.285 527.149 100.692C528.899 102.035 530.364 103.297 531.544 104.477C532.765 105.657 533.802 106.816 534.657 107.956C535.064 108.485 535.267 109.237 535.267 110.214V163.192C535.267 163.965 535.003 164.637 534.474 165.207C533.945 165.736 533.273 166 532.459 166H523.304C522.653 166 522.063 165.919 521.534 165.756C521.046 165.552 520.578 165.186 520.13 164.657L516.346 159.774H515.919C515.268 160.71 514.251 161.789 512.867 163.009C511.524 164.23 509.551 165.288 506.947 166.183C504.383 167.078 500.925 167.526 496.571 167.526ZM607.716 109.909C609.221 108.078 611.541 106.308 614.674 104.599C617.848 102.849 622.303 101.974 628.041 101.974C636.179 101.974 642.058 104.07 645.68 108.261C649.301 112.452 651.112 118.738 651.112 127.121V162.765C651.112 163.986 650.847 164.84 650.318 165.329C649.83 165.776 648.976 166 647.755 166H635.182C633.961 166 633.086 165.776 632.557 165.329C632.069 164.84 631.825 163.986 631.825 162.765V130.294C631.825 125.737 630.991 122.482 629.322 120.529C627.654 118.535 625.152 117.538 621.815 117.538C618.845 117.538 616.485 118.209 614.735 119.552C613.026 120.854 611.805 122.624 611.073 124.862V162.765C611.073 163.986 610.808 164.84 610.279 165.329C609.791 165.776 608.937 166 607.716 166H595.143C593.922 166 593.047 165.776 592.518 165.329C592.03 164.84 591.786 163.986 591.786 162.765V130.294C591.786 125.859 590.87 122.624 589.039 120.59C587.208 118.555 584.807 117.538 581.837 117.538C579.029 117.538 576.771 118.23 575.062 119.613C573.353 120.997 572.031 122.746 571.095 124.862V162.765C571.095 163.986 570.83 164.84 570.301 165.329C569.813 165.776 568.958 166 567.738 166H555.165C553.944 166 553.069 165.776 552.54 165.329C552.052 164.84 551.808 163.986 551.808 162.765V111.618C551.808 110.641 552.011 109.888 552.418 109.359C553.272 108.22 554.29 107.06 555.47 105.88C556.69 104.7 558.176 103.439 559.925 102.096C560.454 101.689 560.963 101.486 561.451 101.486C561.899 101.486 562.407 101.689 562.977 102.096C564.686 103.439 566.151 104.721 567.372 105.941C568.592 107.162 569.671 108.424 570.606 109.726H570.912C572.295 107.976 574.452 106.247 577.381 104.538C580.311 102.829 584.502 101.974 589.955 101.974C595.163 101.974 599.028 102.768 601.551 104.354C604.074 105.901 606.129 107.752 607.716 109.909ZM664.845 82.9922C664.845 82.4632 665.007 81.9953 665.333 81.5884C665.659 81.1815 666.086 80.6525 666.615 80.0015C667.754 78.6994 669.076 77.3363 670.582 75.9121C672.088 74.4473 673.613 73.0435 675.16 71.7007C676.136 70.9276 676.869 70.541 677.357 70.541C677.845 70.541 678.598 70.9276 679.615 71.7007C682.911 74.549 685.719 77.3159 688.038 80.0015C688.567 80.6118 688.994 81.1408 689.32 81.5884C689.686 81.9953 689.869 82.4632 689.869 82.9922C689.869 83.5212 689.686 83.9891 689.32 84.396C688.994 84.8029 688.547 85.3522 687.977 86.0439C686.878 87.3053 685.597 88.6685 684.132 90.1333C682.667 91.5575 681.161 92.9206 679.615 94.2227C679.046 94.7109 678.598 95.0365 678.272 95.1992C677.947 95.3213 677.642 95.3823 677.357 95.3823C677.072 95.3823 676.767 95.3213 676.441 95.1992C676.157 95.0365 675.689 94.7109 675.038 94.2227C673.41 92.9206 671.884 91.5575 670.46 90.1333C669.036 88.6685 667.754 87.2646 666.615 85.9219C666.086 85.2708 665.659 84.7622 665.333 84.396C665.007 83.9891 664.845 83.5212 664.845 82.9922ZM686.939 162.765C686.939 163.986 686.675 164.84 686.146 165.329C685.658 165.776 684.803 166 683.583 166H671.009C669.789 166 668.914 165.776 668.385 165.329C667.896 164.84 667.652 163.986 667.652 162.765V106.735C667.652 105.514 667.896 104.68 668.385 104.232C668.914 103.744 669.789 103.5 671.009 103.5H683.583C684.803 103.5 685.658 103.744 686.146 104.232C686.675 104.68 686.939 105.514 686.939 106.735V162.765ZM718.25 160.324C716.501 157.028 714.71 152.857 712.879 147.812C711.048 142.725 709.299 137.273 707.63 131.454C705.962 125.635 704.477 119.898 703.175 114.242C701.873 108.546 700.835 103.378 700.062 98.7393C699.33 94.1006 698.963 90.4792 698.963 87.875C698.963 86.8171 699.187 85.9829 699.635 85.3726C700.571 84.0705 701.71 82.7277 703.053 81.3442C704.436 79.9201 706.064 78.4349 707.936 76.8887C708.546 76.4004 709.116 76.1562 709.645 76.1562C710.174 76.1562 710.702 76.4004 711.231 76.8887C713.144 78.4349 714.771 79.9201 716.114 81.3442C717.457 82.7277 718.596 84.0705 719.532 85.3726C719.98 85.9829 720.204 86.8781 720.204 88.0581V87.814C720.204 90.4995 720.549 94.1413 721.241 98.7393C721.974 103.297 722.91 108.301 724.049 113.754C725.229 119.166 726.49 124.516 727.833 129.806C729.216 135.055 730.58 139.735 731.922 143.844H732.289C734.486 138.392 736.541 132.471 738.453 126.083C740.366 119.695 742.156 113.164 743.824 106.491C745.493 99.8175 747.059 93.3275 748.524 87.0205C748.972 85.1895 749.724 83.9281 750.782 83.2363C751.881 82.5039 753.59 82.1377 755.909 82.1377H763.233C765.309 82.1377 766.855 82.4429 767.872 83.0532C768.889 83.6636 769.622 84.986 770.069 87.0205C771.127 91.7406 772.328 96.7251 773.67 101.974C775.013 107.223 776.397 112.452 777.821 117.66C779.286 122.828 780.75 127.67 782.215 132.187C783.721 136.703 785.145 140.589 786.488 143.844H786.854C788.563 139.979 790.089 135.421 791.432 130.172C792.815 124.923 793.975 119.573 794.911 114.12C795.887 108.627 796.62 103.541 797.108 98.8613C797.637 94.182 797.901 90.4995 797.901 87.814V88.0581C797.901 86.8781 798.105 85.9829 798.512 85.3726C800.465 82.687 803.15 79.859 806.568 76.8887C807.219 76.4004 807.789 76.1562 808.277 76.1562C808.725 76.1562 809.254 76.4004 809.864 76.8887C811.695 78.4349 813.262 79.9201 814.564 81.3442C815.866 82.7277 816.985 84.0705 817.921 85.3726C818.328 86.0236 818.531 86.8984 818.531 87.9971C818.531 91.415 818.145 95.5247 817.372 100.326C816.598 105.128 815.541 110.255 814.198 115.707C812.896 121.119 811.41 126.531 809.742 131.942C808.115 137.354 806.385 142.42 804.554 147.14C802.764 151.819 800.994 155.787 799.244 159.042C797.779 161.768 796.457 163.62 795.277 164.596C794.138 165.532 792.49 166 790.333 166H782.826C780.995 166 779.448 165.593 778.187 164.779C776.966 163.965 775.685 162.44 774.342 160.202C773.325 158.493 772.145 156.092 770.802 153C769.5 149.907 768.177 146.55 766.834 142.929C765.532 139.267 764.352 135.727 763.294 132.309C762.236 128.891 761.463 126.002 760.975 123.642C760.405 120.956 759.917 118.372 759.51 115.89C759.144 113.367 758.92 111.394 758.839 109.97H758.351C758.269 111.394 758.005 113.367 757.557 115.89C757.15 118.372 756.642 120.956 756.031 123.642C755.421 126.327 754.607 129.399 753.59 132.858C752.573 136.317 751.454 139.796 750.233 143.295C749.012 146.794 747.792 150.029 746.571 153C745.35 155.97 744.211 158.33 743.153 160.08C741.973 162.073 740.671 163.559 739.247 164.535C737.863 165.512 735.93 166 733.448 166H726.551C724.395 166 722.767 165.613 721.668 164.84C720.57 164.067 719.431 162.562 718.25 160.324ZM818.531 87.814V88.0581V87.9971C818.531 87.9157 818.531 87.8547 818.531 87.814ZM698.963 87.814V87.875V88.0581V87.814ZM842.396 167.526C836.415 167.526 831.654 165.858 828.114 162.521C824.614 159.144 822.865 154.505 822.865 148.605C822.865 145.553 823.414 142.725 824.513 140.121C825.652 137.476 827.605 135.157 830.372 133.163C833.18 131.129 837.086 129.501 842.091 128.28C847.136 127.06 853.565 126.347 861.378 126.144C861.378 122.441 860.442 119.776 858.57 118.148C856.739 116.521 853.972 115.707 850.27 115.707C846.933 115.707 844.207 116.277 842.091 117.416C839.975 118.555 838.653 119.328 838.124 119.735C837.554 120.224 836.862 120.407 836.048 120.285C834.95 120.122 833.77 119.837 832.508 119.43C831.288 119.023 829.965 118.555 828.541 118.026C828.338 117.945 828.114 117.823 827.87 117.66C827.625 117.457 827.483 117.172 827.442 116.806C827.442 116.602 827.463 116.358 827.503 116.073C827.544 115.748 827.646 115.178 827.809 114.364C827.971 113.55 828.215 112.554 828.541 111.374C828.867 110.153 829.172 109.217 829.457 108.566C829.823 107.874 830.433 107.223 831.288 106.613C831.979 106.043 834.075 105.128 837.574 103.866C841.074 102.605 846.139 101.974 852.772 101.974C871.042 101.974 880.177 110.865 880.177 128.646V163.192C880.177 163.965 879.953 164.637 879.505 165.207C879.098 165.736 878.386 166 877.369 166H868.214C867.563 166 866.973 165.919 866.444 165.756C865.956 165.552 865.488 165.186 865.04 164.657L861.256 159.774H860.829C858.957 162.501 856.434 164.474 853.26 165.695C850.127 166.916 846.506 167.526 842.396 167.526ZM849.11 153.366C852.853 153.366 855.681 152.41 857.594 150.497C859.506 148.585 860.727 146.611 861.256 144.577V137.802C855.6 137.802 851.348 138.249 848.5 139.145C845.692 139.999 843.82 141.138 842.884 142.562C841.948 143.946 841.48 145.451 841.48 147.079C841.48 149.439 842.213 151.087 843.678 152.023C845.143 152.918 846.953 153.366 849.11 153.366ZM904.042 167.282C903.187 167.648 902.577 167.831 902.21 167.831C901.844 167.831 901.458 167.689 901.051 167.404C900.115 166.753 899.037 165.166 897.816 162.643C896.636 160.08 896.046 156.153 896.046 150.863V80.1846C896.046 79.208 896.249 78.4552 896.656 77.9263C898.365 75.6883 900.868 73.2673 904.164 70.6631C904.733 70.2562 905.242 70.0527 905.689 70.0527C906.218 70.0527 906.727 70.2562 907.215 70.6631C908.965 72.0059 910.43 73.2673 911.61 74.4473C912.831 75.6273 913.868 76.7869 914.723 77.9263C915.13 78.4552 915.333 79.208 915.333 80.1846V147.14C915.333 149.826 915.557 152.125 916.004 154.037C916.452 155.909 916.981 157.414 917.591 158.554C918.283 159.896 918.019 160.853 916.798 161.422L904.042 167.282ZM940.052 167.282C939.198 167.648 938.587 167.831 938.221 167.831C937.855 167.831 937.468 167.689 937.062 167.404C936.126 166.753 935.047 165.166 933.827 162.643C932.647 160.08 932.057 156.153 932.057 150.863V80.1846C932.057 79.208 932.26 78.4552 932.667 77.9263C934.376 75.6883 936.878 73.2673 940.174 70.6631C940.744 70.2562 941.253 70.0527 941.7 70.0527C942.229 70.0527 942.738 70.2562 943.226 70.6631C944.976 72.0059 946.441 73.2673 947.621 74.4473C948.841 75.6273 949.879 76.7869 950.733 77.9263C951.14 78.4552 951.344 79.208 951.344 80.1846V147.14C951.344 149.826 951.568 152.125 952.015 154.037C952.463 155.909 952.992 157.414 953.602 158.554C954.294 159.896 954.029 160.853 952.809 161.422L940.052 167.282ZM998.707 167.526C991.83 167.526 985.849 166.427 980.763 164.23C975.676 161.992 971.729 158.533 968.922 153.854C966.114 149.175 964.71 143.132 964.71 135.727C964.71 124.618 967.559 116.216 973.255 110.519C978.952 104.822 986.52 101.974 995.96 101.974C1002.1 101.974 1007.29 103.073 1011.52 105.27C1015.8 107.467 1019.03 110.499 1021.23 114.364C1023.47 118.23 1024.59 122.645 1024.59 127.609C1024.59 132.451 1023.34 135.828 1020.86 137.741C1018.38 139.653 1014.76 140.609 1010 140.609H983.814C984.14 144.8 985.666 147.995 988.392 150.192C991.159 152.389 994.903 153.488 999.623 153.488C1003.37 153.488 1006.36 152.938 1008.59 151.84C1010.87 150.701 1012.46 149.805 1013.36 149.154C1014.13 148.585 1015 148.32 1015.98 148.361C1016.75 148.361 1017.85 148.524 1019.28 148.849C1020.74 149.134 1022.19 149.683 1023.61 150.497C1024.63 151.026 1025.14 151.758 1025.14 152.694C1025.14 153.223 1025.03 153.976 1024.83 154.953C1024.71 155.522 1024.5 156.356 1024.22 157.455C1023.93 158.513 1023.57 159.51 1023.12 160.446C1022.88 160.893 1022.49 161.321 1021.96 161.728C1021.15 162.297 1019.83 163.05 1017.99 163.986C1016.2 164.922 1013.74 165.736 1010.61 166.427C1007.48 167.16 1003.51 167.526 998.707 167.526ZM983.692 128.097H1003.59C1005.67 128.097 1006.7 127.141 1006.7 125.229C1006.7 122.34 1005.79 119.918 1003.96 117.965C1002.17 115.972 999.46 114.975 995.838 114.975C991.891 114.975 988.982 116.236 987.11 118.759C985.279 121.282 984.14 124.394 983.692 128.097ZM1062.12 167.526C1048.53 167.526 1041.74 160.466 1041.74 146.347V117.721H1034.84C1033.62 117.721 1032.76 117.477 1032.28 116.989C1031.83 116.46 1031.6 115.585 1031.6 114.364V106.857C1031.6 105.636 1031.83 104.782 1032.28 104.293C1032.76 103.764 1033.62 103.5 1034.84 103.5H1041.74V93.6733C1041.74 92.6968 1041.94 91.944 1042.35 91.415C1044.06 89.1771 1046.56 86.756 1049.85 84.1519C1050.42 83.745 1050.93 83.5415 1051.38 83.5415C1051.87 83.5415 1052.36 83.745 1052.85 84.1519C1054.59 85.4946 1056.06 86.756 1057.24 87.936C1058.46 89.116 1059.5 90.2757 1060.35 91.415C1060.76 91.944 1060.96 92.6968 1060.96 93.6733V103.5H1071.77C1072.99 103.5 1073.82 103.764 1074.27 104.293C1074.76 104.782 1075 105.636 1075 106.857V114.364C1075 115.585 1074.76 116.46 1074.27 116.989C1073.82 117.477 1072.99 117.721 1071.77 117.721H1060.96V142.99C1060.96 149.5 1063.32 152.755 1068.04 152.755C1068.78 152.755 1069.45 152.694 1070.06 152.572C1070.67 152.41 1071.2 152.247 1071.64 152.084C1072.5 151.758 1073.09 151.636 1073.41 151.718C1073.78 151.799 1074.11 152.247 1074.39 153.061L1077.93 162.521C1078.3 163.538 1078.05 164.271 1077.2 164.718C1076.59 165.003 1075.1 165.532 1072.74 166.305C1070.42 167.119 1066.88 167.526 1062.12 167.526Z" fill="#D61C4E"/>
</svg>
