<svg width="1551" height="330" viewBox="0 0 1551 330" fill="none" xmlns="http://www.w3.org/2000/svg">
<rect width="330" height="330" rx="68" fill="#D61C4E" fill-opacity="0.1"/>
<path d="M60.7407 155.468C60.7407 155.468 91.3574 141.336 115.219 130.482M197.63 194.456L237.031 176.123C285.823 146.568 238.591 74.3632 198.946 92.3967C177.663 102.078 142.877 117.901 115.219 130.482M115.219 130.482L170.275 254.419" stroke="#D61C4E" stroke-width="40" stroke-linecap="round"/>
<path d="M413.137 127.765C413.137 128.986 412.872 129.84 412.343 130.329C411.855 130.776 411 131 409.78 131H396.779C395.559 131 394.684 130.776 394.155 130.329C393.667 129.84 393.422 128.986 393.422 127.765V59.5278H375.234C374.257 59.5278 373.525 59.3651 373.037 59.0396C371.979 58.3071 370.88 57.4323 369.741 56.415C368.642 55.3978 367.442 54.1771 366.14 52.7529C365.733 52.224 365.529 51.7967 365.529 51.4712C365.529 51.105 365.733 50.6981 366.14 50.2505C367.442 48.8263 368.642 47.6056 369.741 46.5884C370.88 45.5711 371.979 44.6963 373.037 43.9639C373.606 43.6383 374.339 43.4756 375.234 43.4756H431.386C432.363 43.4756 433.095 43.6383 433.583 43.9639C434.641 44.6963 435.74 45.5711 436.879 46.5884C438.019 47.6056 439.219 48.8263 440.48 50.2505C440.887 50.7795 441.091 51.2067 441.091 51.5322C441.091 51.8984 440.887 52.3053 440.48 52.7529C439.219 54.1771 438.019 55.3978 436.879 56.415C435.74 57.4323 434.641 58.3071 433.583 59.0396C433.014 59.3651 432.281 59.5278 431.386 59.5278H413.137V127.765ZM449.025 132.526C443.044 132.526 438.283 130.858 434.743 127.521C431.244 124.144 429.494 119.505 429.494 113.605C429.494 110.553 430.043 107.725 431.142 105.121C432.281 102.476 434.235 100.157 437.001 98.1631C439.809 96.1286 443.715 94.501 448.72 93.2803C453.766 92.0596 460.195 91.3475 468.007 91.144C468.007 87.4412 467.071 84.776 465.2 83.1484C463.369 81.5208 460.602 80.707 456.899 80.707C453.562 80.707 450.836 81.2767 448.72 82.416C446.604 83.5553 445.282 84.3285 444.753 84.7354C444.183 85.2236 443.492 85.4067 442.678 85.2847C441.579 85.1219 440.399 84.8371 439.138 84.4302C437.917 84.0233 436.595 83.5553 435.17 83.0264C434.967 82.945 434.743 82.8229 434.499 82.6602C434.255 82.4567 434.112 82.1719 434.072 81.8057C434.072 81.6022 434.092 81.3581 434.133 81.0732C434.174 80.7477 434.275 80.1781 434.438 79.3643C434.601 78.5505 434.845 77.5535 435.17 76.3735C435.496 75.1528 435.801 74.217 436.086 73.5659C436.452 72.8742 437.062 72.2231 437.917 71.6128C438.609 71.0431 440.704 70.1276 444.204 68.8662C447.703 67.6048 452.769 66.9741 459.401 66.9741C477.671 66.9741 486.806 75.8649 486.806 93.6465V128.192C486.806 128.965 486.582 129.637 486.135 130.207C485.728 130.736 485.016 131 483.999 131H474.843C474.192 131 473.602 130.919 473.073 130.756C472.585 130.552 472.117 130.186 471.669 129.657L467.885 124.774H467.458C465.586 127.501 463.063 129.474 459.89 130.695C456.757 131.916 453.135 132.526 449.025 132.526ZM455.739 118.366C459.483 118.366 462.311 117.41 464.223 115.497C466.136 113.585 467.356 111.611 467.885 109.577V102.802C462.229 102.802 457.977 103.249 455.129 104.145C452.321 104.999 450.45 106.138 449.514 107.562C448.578 108.946 448.11 110.451 448.11 112.079C448.11 114.439 448.842 116.087 450.307 117.023C451.772 117.918 453.583 118.366 455.739 118.366ZM521.962 127.765C521.962 128.986 521.698 129.84 521.169 130.329C520.681 130.776 519.826 131 518.605 131H506.032C504.812 131 503.937 130.776 503.408 130.329C502.919 129.84 502.675 128.986 502.675 127.765V45.1846C502.675 44.208 502.879 43.4552 503.286 42.9263C504.995 40.6883 507.497 38.2673 510.793 35.6631C511.363 35.2562 511.871 35.0527 512.319 35.0527C512.848 35.0527 513.356 35.2562 513.845 35.6631C515.594 37.0059 517.059 38.2673 518.239 39.4473C519.46 40.6273 520.498 41.7869 521.352 42.9263C521.759 43.4552 521.962 44.208 521.962 45.1846V93.0972H522.695C528.88 93.0972 533.071 91.9985 535.268 89.8013C537.506 87.5633 538.625 84.4709 538.625 80.5239V77.228C538.625 76.2515 538.828 75.4987 539.235 74.9697C540.944 72.7318 543.447 70.3107 546.743 67.7065C547.312 67.2996 547.821 67.0962 548.269 67.0962C548.798 67.0962 549.306 67.2996 549.794 67.7065C551.544 69.0493 553.009 70.3107 554.189 71.4907C555.41 72.6707 556.447 73.8304 557.302 74.9697C557.709 75.4987 557.912 76.2515 557.912 77.228V80.5239C557.912 82.8433 557.444 85.4067 556.508 88.2144C555.613 91.022 553.965 93.5041 551.564 95.6606C549.164 97.8172 545.746 99.0786 541.311 99.4448V99.75C544.729 101.256 547.679 103.249 550.161 105.731C552.643 108.214 554.718 110.879 556.386 113.727C558.055 116.535 559.336 119.241 560.231 121.845C561.167 124.408 561.778 126.585 562.062 128.375C562.347 130.125 561.757 131 560.292 131H544.24C542.857 131 542.063 130.166 541.86 128.498C541.575 126.585 540.944 124.347 539.968 121.784C539.032 119.18 537.75 116.636 536.123 114.154C534.536 111.672 532.603 109.617 530.324 107.99C528.086 106.321 525.543 105.487 522.695 105.487H521.962V127.765ZM594.045 132.526C579.559 132.526 572.316 123.757 572.316 106.22L572.255 75.2139C572.255 74.2373 572.459 73.4845 572.866 72.9556C574.575 70.7176 577.077 68.2965 580.373 65.6924C580.943 65.2855 581.451 65.082 581.899 65.082C582.428 65.082 582.937 65.2855 583.425 65.6924C585.174 67.0352 586.639 68.2965 587.819 69.4766C589.04 70.6566 590.078 71.8162 590.932 72.9556C591.339 73.4845 591.542 74.2373 591.542 75.2139V104.511C591.542 113.34 595.042 117.755 602.041 117.755C605.499 117.755 608.266 116.555 610.341 114.154C612.417 111.713 613.454 108.417 613.454 104.267V75.2139C613.454 74.2373 613.658 73.4845 614.064 72.9556C615.773 70.7176 618.276 68.2965 621.572 65.6924C622.141 65.2855 622.65 65.082 623.098 65.082C623.627 65.082 624.135 65.2855 624.624 65.6924C626.373 67.0352 627.838 68.2965 629.018 69.4766C630.239 70.6566 631.276 71.8162 632.131 72.9556C632.538 73.4845 632.741 74.2373 632.741 75.2139V128.192C632.741 128.965 632.477 129.637 631.948 130.207C631.419 130.736 630.747 131 629.934 131H620.778C620.127 131 619.537 130.919 619.008 130.756C618.52 130.552 618.052 130.186 617.604 129.657L613.82 124.774H613.393C612.742 125.71 611.725 126.789 610.341 128.009C608.999 129.23 607.025 130.288 604.421 131.183C601.857 132.078 598.399 132.526 594.045 132.526ZM705.19 74.9087C706.695 73.0776 709.015 71.3076 712.148 69.5986C715.322 67.849 719.777 66.9741 725.515 66.9741C733.653 66.9741 739.532 69.0697 743.154 73.2607C746.775 77.4518 748.586 83.7384 748.586 92.1206V127.765C748.586 128.986 748.321 129.84 747.792 130.329C747.304 130.776 746.45 131 745.229 131H732.656C731.435 131 730.56 130.776 730.031 130.329C729.543 129.84 729.299 128.986 729.299 127.765V95.2944C729.299 90.7371 728.465 87.4819 726.796 85.5288C725.128 83.535 722.626 82.5381 719.289 82.5381C716.319 82.5381 713.959 83.2095 712.209 84.5522C710.5 85.8543 709.279 87.6243 708.547 89.8623V127.765C708.547 128.986 708.282 129.84 707.753 130.329C707.265 130.776 706.411 131 705.19 131H692.617C691.396 131 690.521 130.776 689.992 130.329C689.504 129.84 689.26 128.986 689.26 127.765V95.2944C689.26 90.8592 688.344 87.6243 686.513 85.5898C684.682 83.5553 682.281 82.5381 679.311 82.5381C676.503 82.5381 674.245 83.2298 672.536 84.6133C670.827 85.9967 669.505 87.7464 668.569 89.8623V127.765C668.569 128.986 668.304 129.84 667.775 130.329C667.287 130.776 666.433 131 665.212 131H652.639C651.418 131 650.543 130.776 650.014 130.329C649.526 129.84 649.282 128.986 649.282 127.765V76.6177C649.282 75.6411 649.485 74.8883 649.892 74.3594C650.747 73.2201 651.764 72.0604 652.944 70.8804C654.165 69.7004 655.65 68.439 657.399 67.0962C657.928 66.6893 658.437 66.4858 658.925 66.4858C659.373 66.4858 659.882 66.6893 660.451 67.0962C662.16 68.439 663.625 69.7207 664.846 70.9414C666.066 72.1621 667.145 73.4235 668.081 74.7256H668.386C669.769 72.9759 671.926 71.2466 674.855 69.5376C677.785 67.8286 681.976 66.9741 687.429 66.9741C692.637 66.9741 696.503 67.7676 699.025 69.3545C701.548 70.9007 703.603 72.7521 705.19 74.9087ZM762.319 47.9922C762.319 47.4632 762.482 46.9953 762.807 46.5884C763.133 46.1815 763.56 45.6525 764.089 45.0015C765.228 43.6994 766.551 42.3363 768.056 40.9121C769.562 39.4473 771.088 38.0435 772.634 36.7007C773.61 35.9276 774.343 35.541 774.831 35.541C775.319 35.541 776.072 35.9276 777.089 36.7007C780.385 39.549 783.193 42.3159 785.512 45.0015C786.041 45.6118 786.468 46.1408 786.794 46.5884C787.16 46.9953 787.343 47.4632 787.343 47.9922C787.343 48.5212 787.16 48.9891 786.794 49.396C786.468 49.8029 786.021 50.3522 785.451 51.0439C784.353 52.3053 783.071 53.6685 781.606 55.1333C780.141 56.5575 778.636 57.9206 777.089 59.2227C776.52 59.7109 776.072 60.0365 775.747 60.1992C775.421 60.3213 775.116 60.3823 774.831 60.3823C774.546 60.3823 774.241 60.3213 773.916 60.1992C773.631 60.0365 773.163 59.7109 772.512 59.2227C770.884 57.9206 769.358 56.5575 767.934 55.1333C766.51 53.6685 765.228 52.2646 764.089 50.9219C763.56 50.2708 763.133 49.7622 762.807 49.396C762.482 48.9891 762.319 48.5212 762.319 47.9922ZM784.414 127.765C784.414 128.986 784.149 129.84 783.62 130.329C783.132 130.776 782.277 131 781.057 131H768.483C767.263 131 766.388 130.776 765.859 130.329C765.371 129.84 765.126 128.986 765.126 127.765V71.7349C765.126 70.5142 765.371 69.68 765.859 69.2324C766.388 68.7441 767.263 68.5 768.483 68.5H781.057C782.277 68.5 783.132 68.7441 783.62 69.2324C784.149 69.68 784.414 70.5142 784.414 71.7349V127.765ZM855.703 127.765C855.703 128.986 855.458 129.84 854.97 130.329C854.523 130.776 853.709 131 852.529 131H840.261C839.121 131 838.308 130.776 837.819 130.329C837.331 129.84 837.087 128.986 837.087 127.765V50.4336C837.087 48.0329 837.555 46.2832 838.491 45.1846C839.427 44.0452 841.075 43.4756 843.435 43.4756H849.111C851.186 43.4756 853.139 43.7604 854.97 44.3301C856.842 44.859 858.815 46.0798 860.891 47.9922C863.007 49.9046 865.448 52.875 868.215 56.9033C871.022 60.891 874.4 66.3434 878.347 73.2607C882.131 79.8525 885.162 85.1219 887.441 89.0688C889.76 93.0158 891.551 96.0269 892.812 98.1021C894.073 100.177 895.009 101.662 895.62 102.558C896.271 103.453 896.8 104.185 897.207 104.755V53.2412C897.207 52.0612 897.39 51.166 897.756 50.5557C899.506 47.8701 901.927 45.0422 905.019 42.0718C905.629 41.5835 906.138 41.3394 906.545 41.3394C906.993 41.3394 907.481 41.5835 908.01 42.0718C909.678 43.618 911.082 45.1032 912.221 46.5273C913.401 47.9108 914.418 49.2536 915.273 50.5557C915.639 51.2067 915.822 52.1019 915.822 53.2412V125.934C915.822 127.765 915.476 129.067 914.785 129.84C914.093 130.613 912.832 131 911 131H905.141C903.391 131 901.601 130.715 899.77 130.146C897.939 129.535 895.864 128.192 893.544 126.117C891.225 124.001 888.479 120.726 885.305 116.291C882.131 111.855 878.306 105.792 873.83 98.1021C870.046 91.5509 867.014 86.3426 864.736 82.4771C862.498 78.6115 860.789 75.7021 859.609 73.749C858.429 71.7552 857.574 70.3717 857.045 69.5986C856.516 68.7848 856.069 68.1745 855.703 67.7676V127.765ZM962.636 132.526C955.76 132.526 949.778 131.427 944.692 129.23C939.606 126.992 935.659 123.533 932.851 118.854C930.043 114.175 928.64 108.132 928.64 100.727C928.64 89.6182 931.488 81.2157 937.185 75.519C942.881 69.8224 950.45 66.9741 959.89 66.9741C966.034 66.9741 971.222 68.0728 975.454 70.27C979.726 72.4673 982.961 75.4987 985.158 79.3643C987.396 83.2298 988.515 87.6447 988.515 92.6089C988.515 97.451 987.274 100.828 984.792 102.741C982.31 104.653 978.688 105.609 973.928 105.609H947.744C948.069 109.8 949.595 112.995 952.321 115.192C955.088 117.389 958.832 118.488 963.552 118.488C967.295 118.488 970.286 117.938 972.524 116.84C974.803 115.701 976.389 114.805 977.285 114.154C978.058 113.585 978.933 113.32 979.909 113.361C980.682 113.361 981.781 113.524 983.205 113.849C984.67 114.134 986.114 114.683 987.539 115.497C988.556 116.026 989.064 116.758 989.064 117.694C989.064 118.223 988.963 118.976 988.759 119.953C988.637 120.522 988.434 121.356 988.149 122.455C987.864 123.513 987.498 124.51 987.05 125.446C986.806 125.893 986.42 126.321 985.891 126.728C985.077 127.297 983.754 128.05 981.923 128.986C980.133 129.922 977.671 130.736 974.538 131.427C971.405 132.16 967.438 132.526 962.636 132.526ZM947.622 93.0972H967.519C969.594 93.0972 970.632 92.141 970.632 90.2285C970.632 87.3395 969.716 84.9185 967.885 82.9653C966.095 80.9715 963.389 79.9746 959.768 79.9746C955.821 79.9746 952.911 81.236 951.04 83.7588C949.208 86.2816 948.069 89.3944 947.622 93.0972ZM1028.31 109.821C1024 112.303 1021.01 115.009 1019.34 117.938C1017.67 120.868 1016.84 124.469 1016.84 128.742C1016.84 129.596 1016.71 130.186 1016.47 130.512C1016.23 130.837 1015.7 131 1014.88 131H1000.66C998.871 131 997.976 129.84 997.976 127.521C997.976 121.987 999.095 117.043 1001.33 112.689C1003.61 108.336 1007.6 104.45 1013.3 101.032C1008.98 98.631 1005.58 95.3758 1003.1 91.2661C1000.66 87.1564 999.44 82.8026 999.44 78.2046V77.228C999.44 76.2515 999.644 75.4987 1000.05 74.9697C1001.76 72.7318 1004.26 70.3107 1007.56 67.7065C1008.13 67.2996 1008.64 67.0962 1009.08 67.0962C1009.61 67.0962 1010.12 67.2996 1010.61 67.7065C1012.36 69.0493 1013.82 70.3107 1015 71.4907C1016.23 72.6707 1017.26 73.8304 1018.12 74.9697C1018.52 75.4987 1018.73 76.2515 1018.73 77.228V78.2046C1018.73 84.0233 1022.1 88.5195 1028.86 91.6934C1031.95 89.9844 1034.13 88.0109 1035.39 85.7729C1036.69 83.535 1037.34 81.0122 1037.34 78.2046V77.228C1037.34 76.2515 1037.55 75.4987 1037.95 74.9697C1039.58 72.7318 1042.02 70.3107 1045.28 67.7065C1045.81 67.2996 1046.3 67.0962 1046.74 67.0962C1047.27 67.0962 1047.76 67.2996 1048.21 67.7065C1049.92 69.0493 1051.36 70.3107 1052.54 71.4907C1053.72 72.6707 1054.72 73.8304 1055.53 74.9697C1055.94 75.4987 1056.14 76.2515 1056.14 77.228V78.2046C1056.14 83.2502 1055.02 87.604 1052.79 91.2661C1050.55 94.9282 1047.62 97.9596 1044 100.36C1049.04 103.209 1052.72 106.972 1055.04 111.652C1057.36 116.291 1058.52 121.58 1058.52 127.521C1058.52 128.904 1058.36 129.84 1058.03 130.329C1057.71 130.776 1057 131 1055.9 131H1041.37C1039.95 131 1039.24 130.023 1039.24 128.07C1039.24 125.425 1038.97 123.065 1038.44 120.99C1037.95 118.915 1036.94 116.982 1035.39 115.192C1033.84 113.361 1031.48 111.57 1028.31 109.821ZM1095.75 132.526C1082.16 132.526 1075.37 125.466 1075.37 111.347V82.7212H1068.47C1067.25 82.7212 1066.4 82.4771 1065.91 81.9888C1065.46 81.4598 1065.24 80.585 1065.24 79.3643V71.8569C1065.24 70.6362 1065.46 69.7817 1065.91 69.2935C1066.4 68.7645 1067.25 68.5 1068.47 68.5H1075.37V58.6733C1075.37 57.6968 1075.57 56.944 1075.98 56.415C1077.69 54.1771 1080.19 51.756 1083.49 49.1519C1084.06 48.745 1084.56 48.5415 1085.01 48.5415C1085.5 48.5415 1085.99 48.745 1086.48 49.1519C1088.23 50.4946 1089.69 51.756 1090.87 52.936C1092.09 54.116 1093.13 55.2757 1093.98 56.415C1094.39 56.944 1094.59 57.6968 1094.59 58.6733V68.5H1105.4C1106.62 68.5 1107.45 68.7645 1107.9 69.2935C1108.39 69.7817 1108.63 70.6362 1108.63 71.8569V79.3643C1108.63 80.585 1108.39 81.4598 1107.9 81.9888C1107.45 82.4771 1106.62 82.7212 1105.4 82.7212H1094.59V107.99C1094.59 114.5 1096.95 117.755 1101.67 117.755C1102.41 117.755 1103.08 117.694 1103.69 117.572C1104.3 117.41 1104.83 117.247 1105.28 117.084C1106.13 116.758 1106.72 116.636 1107.05 116.718C1107.41 116.799 1107.74 117.247 1108.02 118.061L1111.56 127.521C1111.93 128.538 1111.68 129.271 1110.83 129.718C1110.22 130.003 1108.73 130.532 1106.37 131.305C1104.05 132.119 1100.51 132.526 1095.75 132.526ZM1121.27 104.999C1120.01 104.999 1119.37 104.368 1119.37 103.107V92.1816C1119.37 90.9202 1120.01 90.2896 1121.27 90.2896H1150.87C1152.13 90.2896 1152.76 90.9202 1152.76 92.1816V103.107C1152.76 104.368 1152.13 104.999 1150.87 104.999H1121.27ZM1242.36 125.019C1241.38 125.71 1239.63 126.667 1237.11 127.887C1234.63 129.067 1231.19 130.125 1226.8 131.061C1222.4 131.997 1216.89 132.465 1210.26 132.465C1201.34 132.465 1193.65 131 1187.18 128.07C1180.76 125.1 1175.81 120.319 1172.35 113.727C1168.89 107.095 1167.17 98.3258 1167.17 87.4209C1167.17 72.8945 1170.89 61.7048 1178.33 53.8516C1185.78 45.9577 1196.16 42.0107 1209.46 42.0107C1215.81 42.0107 1220.88 42.6211 1224.66 43.8418C1228.44 45.0625 1231.31 46.4867 1233.27 48.1143C1235.22 49.7419 1236.58 51.166 1237.36 52.3867C1237.64 52.8343 1237.84 53.2412 1237.97 53.6074C1238.09 53.9329 1238.17 54.4619 1238.21 55.1943C1238.33 56.1709 1238.35 57.5951 1238.27 59.4668C1238.23 61.3385 1238.09 62.9865 1237.84 64.4106C1237.68 65.3058 1237.42 65.8958 1237.05 66.1807C1236.89 66.3434 1236.6 66.4858 1236.2 66.6079C1235.79 66.73 1235.18 66.791 1234.36 66.791C1233.06 66.791 1231.54 66.7503 1229.79 66.6689C1228.08 66.5469 1226.82 66.4248 1226 66.3027C1225.03 66.14 1224.31 65.9162 1223.87 65.6313C1223.46 65.3058 1223.01 64.8175 1222.52 64.1665C1222.04 63.5155 1221.36 62.7627 1220.51 61.9082C1219.66 61.013 1218.35 60.2196 1216.6 59.5278C1214.89 58.8361 1212.51 58.4902 1209.46 58.4902C1202.75 58.4902 1197.48 60.9316 1193.65 65.8145C1189.83 70.6566 1187.92 77.6349 1187.92 86.7495C1187.92 96.3117 1189.89 103.575 1193.84 108.539C1197.83 113.503 1203.54 115.985 1210.99 115.985C1214.73 115.985 1217.48 115.721 1219.23 115.192C1221.02 114.622 1222.16 114.195 1222.65 113.91V94.9282C1222.65 93.7482 1222.85 92.853 1223.26 92.2427C1225.09 89.5571 1227.65 86.7292 1230.95 83.7588C1231.56 83.2705 1232.09 83.0264 1232.53 83.0264C1233.02 83.0264 1233.53 83.2705 1234.06 83.7588C1235.85 85.305 1237.36 86.7902 1238.58 88.2144C1239.8 89.5978 1240.85 90.9406 1241.75 92.2427C1242.16 92.8937 1242.36 93.7889 1242.36 94.9282V125.019ZM1287.95 132.526C1281.08 132.526 1275.1 131.427 1270.01 129.23C1264.92 126.992 1260.98 123.533 1258.17 118.854C1255.36 114.175 1253.96 108.132 1253.96 100.727C1253.96 89.6182 1256.81 81.2157 1262.5 75.519C1268.2 69.8224 1275.77 66.9741 1285.21 66.9741C1291.35 66.9741 1296.54 68.0728 1300.77 70.27C1305.04 72.4673 1308.28 75.4987 1310.48 79.3643C1312.71 83.2298 1313.83 87.6447 1313.83 92.6089C1313.83 97.451 1312.59 100.828 1310.11 102.741C1307.63 104.653 1304.01 105.609 1299.25 105.609H1273.06C1273.39 109.8 1274.91 112.995 1277.64 115.192C1280.41 117.389 1284.15 118.488 1288.87 118.488C1292.61 118.488 1295.6 117.938 1297.84 116.84C1300.12 115.701 1301.71 114.805 1302.6 114.154C1303.38 113.585 1304.25 113.32 1305.23 113.361C1306 113.361 1307.1 113.524 1308.52 113.849C1309.99 114.134 1311.43 114.683 1312.86 115.497C1313.87 116.026 1314.38 116.758 1314.38 117.694C1314.38 118.223 1314.28 118.976 1314.08 119.953C1313.95 120.522 1313.75 121.356 1313.47 122.455C1313.18 123.513 1312.82 124.51 1312.37 125.446C1312.12 125.893 1311.74 126.321 1311.21 126.728C1310.39 127.297 1309.07 128.05 1307.24 128.986C1305.45 129.922 1302.99 130.736 1299.86 131.427C1296.72 132.16 1292.76 132.526 1287.95 132.526ZM1272.94 93.0972H1292.84C1294.91 93.0972 1295.95 92.141 1295.95 90.2285C1295.95 87.3395 1295.03 84.9185 1293.2 82.9653C1291.41 80.9715 1288.71 79.9746 1285.08 79.9746C1281.14 79.9746 1278.23 81.236 1276.36 83.7588C1274.53 86.2816 1273.39 89.3944 1272.94 93.0972ZM1387.69 92.1206V127.765C1387.69 128.986 1387.42 129.84 1386.89 130.329C1386.4 130.776 1385.55 131 1384.33 131H1371.75C1370.53 131 1369.66 130.776 1369.13 130.329C1368.64 129.84 1368.4 128.986 1368.4 127.765V95.2944C1368.4 90.8592 1367.46 87.6243 1365.59 85.5898C1363.72 83.5553 1361.18 82.5381 1357.96 82.5381C1354.75 82.5381 1352.26 83.2298 1350.51 84.6133C1348.81 85.9967 1347.48 87.7464 1346.55 89.8623V127.765C1346.55 128.986 1346.28 129.84 1345.75 130.329C1345.27 130.776 1344.41 131 1343.19 131H1330.62C1329.4 131 1328.52 130.776 1327.99 130.329C1327.5 129.84 1327.26 128.986 1327.26 127.765V76.6177C1327.26 75.6411 1327.46 74.8883 1327.87 74.3594C1328.73 73.2201 1329.74 72.0604 1330.92 70.8804C1332.14 69.7004 1333.63 68.439 1335.38 67.0962C1335.91 66.6893 1336.42 66.4858 1336.9 66.4858C1337.35 66.4858 1337.86 66.6893 1338.43 67.0962C1340.14 68.439 1341.6 69.7207 1342.82 70.9414C1344.04 72.1621 1345.12 73.4235 1346.06 74.7256H1346.36C1347.06 73.8304 1348.09 72.7928 1349.48 71.6128C1350.86 70.3921 1352.79 69.3138 1355.28 68.3779C1357.8 67.4421 1361.01 66.9741 1364.92 66.9741C1368.74 66.9741 1372.39 67.7472 1375.84 69.2935C1379.3 70.8397 1382.13 73.4438 1384.33 77.106C1386.57 80.7681 1387.69 85.7729 1387.69 92.1206ZM1061.94 211.297C1064.18 214.431 1066.46 218.479 1068.78 223.443C1071.14 228.367 1073.42 233.779 1075.61 239.679C1077.81 245.579 1079.78 251.621 1081.53 257.806C1083.32 263.95 1084.79 269.871 1085.93 275.567C1087.07 281.264 1087.72 286.33 1087.88 290.765C1087.92 292.922 1086.94 294 1084.95 294H1070.18C1068.27 294 1067.27 293.044 1067.19 291.131C1067.03 286.574 1066.29 281.04 1064.99 274.53H1031.67C1030.53 280.877 1029.88 286.411 1029.71 291.131C1029.63 293.044 1028.59 294 1026.6 294H1012.14C1011.4 294 1010.79 293.797 1010.3 293.39C1009.82 292.942 1009.59 292.189 1009.63 291.131C1009.84 286.615 1010.49 281.488 1011.59 275.75C1012.73 269.972 1014.19 263.991 1015.98 257.806C1017.77 251.621 1019.77 245.579 1021.96 239.679C1024.16 233.738 1026.44 228.306 1028.8 223.382C1031.16 218.459 1033.46 214.431 1035.7 211.297C1036.88 209.629 1038.12 208.408 1039.42 207.635C1040.76 206.862 1042.41 206.476 1044.36 206.476H1053.15C1055.15 206.476 1056.81 206.862 1058.16 207.635C1059.5 208.408 1060.76 209.629 1061.94 211.297ZM1048.15 225.763C1045.46 230.035 1043 235.142 1040.76 241.083C1038.52 247.023 1036.59 253.127 1034.96 259.393H1061.45C1059.74 253.127 1057.77 247.023 1055.53 241.083C1053.29 235.142 1050.95 230.035 1048.51 225.763H1048.15ZM1121.94 290.765C1121.94 291.986 1121.67 292.84 1121.14 293.329C1120.66 293.776 1119.8 294 1118.58 294H1105.58C1104.36 294 1103.49 293.776 1102.96 293.329C1102.47 292.84 1102.22 291.986 1102.22 290.765V216.241C1102.22 215.061 1102.43 214.166 1102.83 213.556C1104.67 210.87 1107.23 208.042 1110.52 205.072C1111.13 204.583 1111.66 204.339 1112.11 204.339C1112.6 204.339 1113.11 204.583 1113.64 205.072C1115.43 206.618 1116.93 208.103 1118.15 209.527C1119.37 210.911 1120.43 212.254 1121.33 213.556C1121.73 214.207 1121.94 215.102 1121.94 216.241V290.765ZM1189.26 288.324C1187.51 285.028 1185.72 280.857 1183.89 275.812C1182.06 270.725 1180.31 265.273 1178.64 259.454C1176.97 253.635 1175.49 247.898 1174.18 242.242C1172.88 236.546 1171.84 231.378 1171.07 226.739C1170.34 222.101 1169.97 218.479 1169.97 215.875C1169.97 214.817 1170.2 213.983 1170.64 213.373C1171.58 212.07 1172.72 210.728 1174.06 209.344C1175.45 207.92 1177.07 206.435 1178.94 204.889C1179.56 204.4 1180.12 204.156 1180.65 204.156C1181.18 204.156 1181.71 204.4 1182.24 204.889C1184.15 206.435 1185.78 207.92 1187.12 209.344C1188.47 210.728 1189.61 212.07 1190.54 213.373C1190.99 213.983 1191.21 214.878 1191.21 216.058V215.814C1191.21 218.5 1191.56 222.141 1192.25 226.739C1192.98 231.297 1193.92 236.301 1195.06 241.754C1196.24 247.166 1197.5 252.516 1198.84 257.806C1200.23 263.055 1201.59 267.735 1202.93 271.844H1203.3C1205.5 266.392 1207.55 260.471 1209.46 254.083C1211.37 247.695 1213.17 241.164 1214.83 234.491C1216.5 227.818 1218.07 221.327 1219.53 215.021C1219.98 213.189 1220.73 211.928 1221.79 211.236C1222.89 210.504 1224.6 210.138 1226.92 210.138H1234.24C1236.32 210.138 1237.86 210.443 1238.88 211.053C1239.9 211.664 1240.63 212.986 1241.08 215.021C1242.14 219.741 1243.34 224.725 1244.68 229.974C1246.02 235.223 1247.41 240.452 1248.83 245.66C1250.29 250.828 1251.76 255.67 1253.22 260.187C1254.73 264.703 1256.15 268.589 1257.5 271.844H1257.86C1259.57 267.979 1261.1 263.421 1262.44 258.172C1263.82 252.923 1264.98 247.573 1265.92 242.12C1266.9 236.627 1267.63 231.541 1268.12 226.861C1268.65 222.182 1268.91 218.5 1268.91 215.814V216.058C1268.91 214.878 1269.11 213.983 1269.52 213.373C1271.47 210.687 1274.16 207.859 1277.58 204.889C1278.23 204.4 1278.8 204.156 1279.29 204.156C1279.73 204.156 1280.26 204.4 1280.87 204.889C1282.7 206.435 1284.27 207.92 1285.57 209.344C1286.88 210.728 1287.99 212.07 1288.93 213.373C1289.34 214.024 1289.54 214.898 1289.54 215.997C1289.54 219.415 1289.15 223.525 1288.38 228.326C1287.61 233.128 1286.55 238.255 1285.21 243.707C1283.9 249.119 1282.42 254.531 1280.75 259.942C1279.12 265.354 1277.39 270.42 1275.56 275.14C1273.77 279.819 1272 283.787 1270.25 287.042C1268.79 289.768 1267.47 291.62 1266.29 292.596C1265.15 293.532 1263.5 294 1261.34 294H1253.83C1252 294 1250.46 293.593 1249.2 292.779C1247.98 291.965 1246.69 290.44 1245.35 288.202C1244.33 286.493 1243.15 284.092 1241.81 281C1240.51 277.907 1239.19 274.55 1237.84 270.929C1236.54 267.267 1235.36 263.727 1234.3 260.309C1233.25 256.891 1232.47 254.002 1231.98 251.642C1231.41 248.956 1230.93 246.372 1230.52 243.89C1230.15 241.367 1229.93 239.394 1229.85 237.97H1229.36C1229.28 239.394 1229.01 241.367 1228.57 243.89C1228.16 246.372 1227.65 248.956 1227.04 251.642C1226.43 254.327 1225.62 257.399 1224.6 260.858C1223.58 264.317 1222.46 267.796 1221.24 271.295C1220.02 274.794 1218.8 278.029 1217.58 281C1216.36 283.97 1215.22 286.33 1214.16 288.08C1212.98 290.073 1211.68 291.559 1210.26 292.535C1208.87 293.512 1206.94 294 1204.46 294H1197.56C1195.4 294 1193.78 293.613 1192.68 292.84C1191.58 292.067 1190.44 290.562 1189.26 288.324ZM1289.54 215.814V216.058V215.997C1289.54 215.916 1289.54 215.855 1289.54 215.814ZM1169.97 215.814V215.875V216.058V215.814ZM1313.41 295.526C1307.42 295.526 1302.66 293.858 1299.12 290.521C1295.62 287.144 1293.87 282.505 1293.87 276.605C1293.87 273.553 1294.42 270.725 1295.52 268.121C1296.66 265.476 1298.61 263.157 1301.38 261.163C1304.19 259.129 1308.1 257.501 1313.1 256.28C1318.15 255.06 1324.57 254.347 1332.39 254.144C1332.39 250.441 1331.45 247.776 1329.58 246.148C1327.75 244.521 1324.98 243.707 1321.28 243.707C1317.94 243.707 1315.22 244.277 1313.1 245.416C1310.98 246.555 1309.66 247.328 1309.13 247.735C1308.56 248.224 1307.87 248.407 1307.06 248.285C1305.96 248.122 1304.78 247.837 1303.52 247.43C1302.3 247.023 1300.97 246.555 1299.55 246.026C1299.35 245.945 1299.12 245.823 1298.88 245.66C1298.63 245.457 1298.49 245.172 1298.45 244.806C1298.45 244.602 1298.47 244.358 1298.51 244.073C1298.55 243.748 1298.66 243.178 1298.82 242.364C1298.98 241.55 1299.22 240.554 1299.55 239.374C1299.88 238.153 1300.18 237.217 1300.47 236.566C1300.83 235.874 1301.44 235.223 1302.3 234.613C1302.99 234.043 1305.08 233.128 1308.58 231.866C1312.08 230.605 1317.15 229.974 1323.78 229.974C1342.05 229.974 1351.19 238.865 1351.19 256.646V291.192C1351.19 291.965 1350.96 292.637 1350.51 293.207C1350.11 293.736 1349.4 294 1348.38 294H1339.22C1338.57 294 1337.98 293.919 1337.45 293.756C1336.96 293.552 1336.5 293.186 1336.05 292.657L1332.27 287.774H1331.84C1329.97 290.501 1327.44 292.474 1324.27 293.695C1321.14 294.916 1317.51 295.526 1313.41 295.526ZM1320.12 281.366C1323.86 281.366 1326.69 280.41 1328.6 278.497C1330.52 276.585 1331.74 274.611 1332.27 272.577V265.802C1326.61 265.802 1322.36 266.249 1319.51 267.145C1316.7 267.999 1314.83 269.138 1313.89 270.562C1312.96 271.946 1312.49 273.451 1312.49 275.079C1312.49 277.439 1313.22 279.087 1314.69 280.023C1316.15 280.918 1317.96 281.366 1320.12 281.366ZM1375.05 295.282C1374.2 295.648 1373.59 295.831 1373.22 295.831C1372.85 295.831 1372.47 295.689 1372.06 295.404C1371.12 294.753 1370.05 293.166 1368.83 290.643C1367.65 288.08 1367.06 284.153 1367.06 278.863V208.185C1367.06 207.208 1367.26 206.455 1367.67 205.926C1369.37 203.688 1371.88 201.267 1375.17 198.663C1375.74 198.256 1376.25 198.053 1376.7 198.053C1377.23 198.053 1377.74 198.256 1378.22 198.663C1379.97 200.006 1381.44 201.267 1382.62 202.447C1383.84 203.627 1384.88 204.787 1385.73 205.926C1386.14 206.455 1386.34 207.208 1386.34 208.185V275.14C1386.34 277.826 1386.57 280.125 1387.01 282.037C1387.46 283.909 1387.99 285.414 1388.6 286.554C1389.29 287.896 1389.03 288.853 1387.81 289.422L1375.05 295.282ZM1411.06 295.282C1410.21 295.648 1409.6 295.831 1409.23 295.831C1408.86 295.831 1408.48 295.689 1408.07 295.404C1407.13 294.753 1406.06 293.166 1404.84 290.643C1403.66 288.08 1403.07 284.153 1403.07 278.863V208.185C1403.07 207.208 1403.27 206.455 1403.68 205.926C1405.39 203.688 1407.89 201.267 1411.18 198.663C1411.75 198.256 1412.26 198.053 1412.71 198.053C1413.24 198.053 1413.75 198.256 1414.24 198.663C1415.99 200.006 1417.45 201.267 1418.63 202.447C1419.85 203.627 1420.89 204.787 1421.74 205.926C1422.15 206.455 1422.35 207.208 1422.35 208.185V275.14C1422.35 277.826 1422.58 280.125 1423.02 282.037C1423.47 283.909 1424 285.414 1424.61 286.554C1425.3 287.896 1425.04 288.853 1423.82 289.422L1411.06 295.282ZM1469.72 295.526C1462.84 295.526 1456.86 294.427 1451.77 292.23C1446.69 289.992 1442.74 286.533 1439.93 281.854C1437.12 277.175 1435.72 271.132 1435.72 263.727C1435.72 252.618 1438.57 244.216 1444.26 238.519C1449.96 232.822 1457.53 229.974 1466.97 229.974C1473.11 229.974 1478.3 231.073 1482.53 233.27C1486.81 235.467 1490.04 238.499 1492.24 242.364C1494.48 246.23 1495.6 250.645 1495.6 255.609C1495.6 260.451 1494.35 263.828 1491.87 265.741C1489.39 267.653 1485.77 268.609 1481.01 268.609H1454.82C1455.15 272.8 1456.68 275.995 1459.4 278.192C1462.17 280.389 1465.91 281.488 1470.63 281.488C1474.38 281.488 1477.37 280.938 1479.6 279.84C1481.88 278.701 1483.47 277.805 1484.36 277.154C1485.14 276.585 1486.01 276.32 1486.99 276.361C1487.76 276.361 1488.86 276.524 1490.29 276.849C1491.75 277.134 1493.19 277.683 1494.62 278.497C1495.64 279.026 1496.14 279.758 1496.14 280.694C1496.14 281.223 1496.04 281.976 1495.84 282.953C1495.72 283.522 1495.51 284.356 1495.23 285.455C1494.94 286.513 1494.58 287.51 1494.13 288.446C1493.89 288.893 1493.5 289.321 1492.97 289.728C1492.16 290.297 1490.83 291.05 1489 291.986C1487.21 292.922 1484.75 293.736 1481.62 294.427C1478.49 295.16 1474.52 295.526 1469.72 295.526ZM1454.7 256.097H1474.6C1476.67 256.097 1477.71 255.141 1477.71 253.229C1477.71 250.34 1476.8 247.918 1474.97 245.965C1473.17 243.972 1470.47 242.975 1466.85 242.975C1462.9 242.975 1459.99 244.236 1458.12 246.759C1456.29 249.282 1455.15 252.394 1454.7 256.097ZM1533.13 295.526C1519.54 295.526 1512.75 288.466 1512.75 274.347V245.721H1505.85C1504.63 245.721 1503.77 245.477 1503.29 244.989C1502.84 244.46 1502.61 243.585 1502.61 242.364V234.857C1502.61 233.636 1502.84 232.782 1503.29 232.293C1503.77 231.764 1504.63 231.5 1505.85 231.5H1512.75V221.673C1512.75 220.697 1512.95 219.944 1513.36 219.415C1515.07 217.177 1517.57 214.756 1520.86 212.152C1521.43 211.745 1521.94 211.542 1522.39 211.542C1522.88 211.542 1523.37 211.745 1523.85 212.152C1525.6 213.495 1527.07 214.756 1528.25 215.936C1529.47 217.116 1530.51 218.276 1531.36 219.415C1531.77 219.944 1531.97 220.697 1531.97 221.673V231.5H1542.78C1544 231.5 1544.83 231.764 1545.28 232.293C1545.77 232.782 1546.01 233.636 1546.01 234.857V242.364C1546.01 243.585 1545.77 244.46 1545.28 244.989C1544.83 245.477 1544 245.721 1542.78 245.721H1531.97V270.99C1531.97 277.5 1534.33 280.755 1539.05 280.755C1539.78 280.755 1540.46 280.694 1541.07 280.572C1541.68 280.41 1542.21 280.247 1542.65 280.084C1543.51 279.758 1544.1 279.636 1544.42 279.718C1544.79 279.799 1545.12 280.247 1545.4 281.061L1548.94 290.521C1549.31 291.538 1549.06 292.271 1548.21 292.718C1547.6 293.003 1546.11 293.532 1543.75 294.305C1541.43 295.119 1537.89 295.526 1533.13 295.526Z" fill="#20222C"/>
<rect x="399" y="187" width="550" height="110" rx="55" fill="#C71C4B" fill-opacity="0.1"/>
<rect x="464" y="187" width="485" height="110" rx="55" fill="#C71C4B" fill-opacity="0.2"/>
<rect x="529" y="187" width="420" height="110" rx="55" fill="#C71C4B" fill-opacity="0.3"/>
<rect x="594" y="187" width="355" height="110" rx="55" fill="#C71C4B" fill-opacity="0.2"/>
<rect x="659" y="187" width="290" height="110" rx="55" fill="#C71C4B" fill-opacity="0.2"/>
<rect x="724" y="187" width="225" height="110" rx="55" fill="#C71C4B" fill-opacity="0.2"/>
<rect x="789" y="187" width="160" height="110" rx="55" fill="#C71C4B" fill-opacity="0.2"/>
<rect x="839" y="187" width="110" height="110" rx="55" fill="#C71C4B" fill-opacity="0.2"/>
</svg>
