<svg width="39" height="46" viewBox="0 0 39 46" fill="none" xmlns="http://www.w3.org/2000/svg">
<path d="M23.571 15.0867C23.9673 14.68 24.6717 13.9536 25.1365 13.4721L25.9817 12.5967H26.8646C27.8354 12.5967 29.0521 12.8604 29.77 13.2267C30.7033 13.7029 31.7392 14.96 31.7392 15.6165C31.7392 15.8229 31.6777 15.8258 27.295 15.8258H22.8508L23.571 15.0867Z" fill="#EF95A9" stroke="#EF95A9"/>
<path d="M27.6122 36.195C26.4935 35.9723 25.7855 35.3371 25.1547 33.9892C24.776 33.1798 24.6503 31.9965 24.8562 31.1794C24.978 30.6954 25.086 30.5502 26.2545 29.3021C26.6351 28.8954 26.8343 28.604 26.7851 28.5248C26.7376 28.4477 26.7503 28.4248 26.8176 28.4663C26.9462 28.5459 27.8437 28.185 27.8995 28.0315C27.9201 27.9744 28.1664 27.894 28.4466 27.8523C28.787 27.8021 28.9343 27.8123 28.8901 27.884C28.7955 28.0369 29.1991 28.1086 29.8641 28.0569C30.1791 28.0323 31.187 27.9944 32.1037 27.9727C33.0203 27.9511 34.2901 27.8986 34.9253 27.8567C35.9543 27.7888 36.1316 27.8029 36.5497 27.9879C36.8076 28.1021 37.1257 28.3458 37.2564 28.5294C37.4922 28.8604 37.4943 28.8917 37.4897 32.1319C37.4872 33.9296 37.4537 35.4996 37.4151 35.6208C37.2916 36.0102 36.4957 36.2765 35.5412 36.2475C35.0828 36.2338 34.6843 36.1861 34.6557 36.1415C34.6272 36.0969 34.4512 36.0273 34.2651 35.9869C34.0055 35.9306 33.9118 35.9519 33.8632 36.0779C33.8097 36.2175 33.567 36.2425 32.2574 36.2425C31.3093 36.2425 30.7012 36.2019 30.6797 36.1371C30.6599 36.0779 30.2382 36.0261 29.7162 36.019C28.9674 36.0088 28.7639 36.0392 28.6635 36.1765C28.5226 36.369 28.4897 36.3696 27.6122 36.195ZM29.623 33.4229C30.6016 33.0523 30.8297 31.8796 30.0707 31.1204C29.8424 30.8923 29.6791 30.8258 29.346 30.8258C27.8487 30.8258 27.3335 32.6483 28.6349 33.3421C29.0397 33.5581 29.2266 33.5733 29.623 33.4229Z" fill="#AD2353" stroke="#AD2353"/>
<path d="M28.6349 33.3424C27.3335 32.6487 27.8487 30.8262 29.346 30.8262C29.6791 30.8262 29.8424 30.8926 30.0708 31.1208C30.8297 31.8799 30.6016 33.0526 29.6231 33.4233C29.2266 33.5737 29.0397 33.5585 28.6349 33.3424Z" fill="white" stroke="white"/>
<path d="M28.0158 36.4446C27.5717 36.3571 27.0994 36.1469 27.3331 36.141C27.4017 36.1392 27.6979 36.1894 27.9913 36.2523C28.4586 36.3525 28.5406 36.3444 28.6563 36.1862C28.7654 36.0367 28.9467 36.0079 29.7163 36.0185C30.2383 36.0256 30.66 36.0775 30.6798 36.1367C30.7013 36.2015 31.3094 36.2421 32.2575 36.2421C33.5671 36.2421 33.8098 36.2171 33.8633 36.0775C33.9119 35.9515 34.0056 35.9302 34.2652 35.9865C34.4513 36.0269 34.6273 36.0965 34.6558 36.141C34.7221 36.2442 36.3381 36.309 36.4908 36.2148C36.5538 36.1758 36.7361 36.0944 36.8958 36.0335C37.1623 35.9323 37.1746 35.9377 37.0413 36.0987C36.6856 36.5275 36.394 36.555 32.3415 36.5431C30.2054 36.5369 28.259 36.4925 28.0158 36.4446Z" fill="#AD2353" stroke="#AD2353"/>
<path d="M37.5134 32.3366C37.5132 30.9043 37.528 30.3041 37.5459 31.0024C37.564 31.7007 37.5641 32.8726 37.5461 33.6066C37.5282 34.3405 37.5134 33.7689 37.5134 32.3366Z" fill="#AD2353" stroke="#AD2353"/>
<path d="M25.0725 30.4478C25.0725 30.3026 25.5433 29.6049 25.8958 29.2276C26.3215 28.7724 27.2323 28.1549 27.6229 28.0568C28.0388 27.9526 27.9275 28.107 27.4348 28.3183C27.0004 28.5045 26.1106 29.3437 25.5146 30.1293C25.2498 30.4783 25.0725 30.606 25.0725 30.4478Z" fill="#AD2353" stroke="#AD2353"/>
<path d="M29.0034 28.042C28.9026 28.0172 28.8468 27.9538 28.8795 27.9009C28.9136 27.8457 30.2074 27.8047 31.9189 27.8047C33.5578 27.8047 34.8757 27.8276 34.8478 27.8557C34.8197 27.8836 33.7924 27.932 32.5649 27.9632C31.3372 27.9943 30.0749 28.0349 29.7599 28.0532C29.4449 28.0716 29.1043 28.0663 29.0034 28.042Z" fill="#AD2353" stroke="#AD2353"/>
<path d="M4.6319 45.0388C3.72774 44.8196 3.01107 44.4086 2.24586 43.6696C1.49982 42.9494 1.02003 42.1623 0.729403 41.1821C0.56107 40.6138 0.543987 39.6713 0.513987 29.1452C0.477737 16.53 0.461903 16.8798 1.1319 15.5134C1.77107 14.2096 3.28503 13.078 4.75982 12.8015C5.07503 12.7423 6.53649 12.684 8.00795 12.6717L10.6829 12.6494L12.2007 14.1592C13.0352 14.9898 13.7182 15.7046 13.7182 15.7475C13.7182 15.7907 11.8642 15.8259 9.59836 15.8259C6.20461 15.8259 5.42732 15.8525 5.1867 15.9769C4.80899 16.1721 4.26003 16.7994 4.1769 17.1307C4.02045 17.7542 4.37399 18.4784 5.00336 18.8228C5.30899 18.99 6.25857 19.0069 18.1973 19.0563L31.0619 19.1098L31.739 19.3411C33.0515 19.7894 34.1315 20.734 34.7409 21.9663L35.1244 22.7419L35.1615 24.3288L35.1984 25.9155L31.5677 25.9552L27.9369 25.995L27.2077 26.2786C25.1963 27.0607 23.8038 28.4886 23.1802 30.4092C22.8946 31.2886 22.8752 32.9836 23.1402 33.9009C23.7311 35.9465 25.2811 37.5148 27.364 38.1748C27.8486 38.3284 28.4959 38.3638 31.5567 38.4042L35.1765 38.4521V39.6169C35.1765 41.4978 34.7917 42.5571 33.7161 43.6378C32.9748 44.3825 32.3488 44.7434 31.3582 44.9967C30.5857 45.1942 30.1482 45.2007 17.8942 45.1921C7.4669 45.185 5.12315 45.158 4.6319 45.0388Z" fill="#EF95A9" stroke="#EF95A9"/>
<path d="M17.8329 17.1918C17.3679 16.9743 12.8333 12.4799 12.3444 11.7518C11.8002 10.9416 12.0454 9.77989 12.8894 9.16864C13.7496 8.54552 14.4206 8.6726 15.5037 9.66364C15.8269 9.95926 16.1175 10.2013 16.1492 10.2013C16.181 10.2013 16.2215 8.3576 16.239 6.10448L16.2704 2.00739L16.5867 1.49635C17.2898 0.359264 18.7448 0.16426 19.744 1.0728C20.2871 1.56718 20.2965 1.63697 20.2971 5.28947C20.2977 7.1978 20.3354 8.57676 20.3831 8.43051C20.441 8.25322 20.4717 8.47593 20.4787 9.1276C20.4844 9.65406 20.5283 10.1091 20.5758 10.1384C20.6235 10.168 20.8931 9.95426 21.1748 9.66384C22.2448 8.56072 23.2808 8.46531 24.1475 9.38948C24.7542 10.0368 24.9123 10.7489 24.5887 11.3784C24.4367 11.6739 19.4573 16.8451 19.0396 17.1411C18.7117 17.3734 18.2615 17.3924 17.8329 17.1918Z" fill="#AD2353" stroke="#AD2353"/>
<path d="M20.3271 5.4619C20.3271 3.68585 20.3415 2.94481 20.3588 3.81481C20.3763 4.68481 20.3763 6.13794 20.3588 7.04398C20.3415 7.94981 20.3271 7.23794 20.3271 5.4619Z" fill="#AD2353" stroke="#AD2353"/>
</svg>
