<svg width="38" height="46" viewBox="0 0 38 46" fill="none" xmlns="http://www.w3.org/2000/svg">
<path d="M27.4887 36.449C26.7314 36.17 26.2812 35.8775 25.7606 35.3271C24.5312 34.0271 24.1822 32.3531 24.7974 30.7079C24.9145 30.395 25.0533 30.1656 25.1053 30.1979C25.2222 30.2702 26.2445 29.3298 26.7268 28.5248C26.6893 28.4273 26.8616 28.3052 27.2656 28.1421C27.8443 27.9081 27.9595 27.9013 31.8962 27.8715C35.6924 27.8427 35.9603 27.8529 36.3868 28.0413C36.6362 28.1517 36.9758 28.4196 37.1412 28.6365L37.4424 29.0312L37.4758 31.9563C37.5118 35.1023 37.4741 35.4231 37.0018 35.9844C36.4885 36.5946 36.4376 36.6008 31.951 36.5927C28.8514 36.5871 27.7693 36.5523 27.4887 36.449ZM29.6326 33.265C30.7235 32.5908 30.3624 31.0123 29.0928 30.9029C27.7835 30.7898 27.1337 32.1975 28.0653 33.1292C28.3481 33.4119 28.4916 33.475 28.852 33.475C29.1122 33.475 29.4322 33.389 29.6326 33.265Z" fill="#AD2353" stroke="#AD2353"/>
<path d="M25.0986 30.083C25.0986 29.8911 26.4551 28.4749 26.2445 29.1497C26.2445 29.2722 25.277 30.2457 25.1551 30.2457C25.124 30.2457 25.0986 30.1726 25.0986 30.083Z" fill="#8D183A" stroke="#AD2353"/>
<path d="M21.9736 14.2616V12.7568L24.4476 12.7251C27.3913 12.6878 28.3918 12.7562 29.1659 13.048C30.1286 13.411 31.1676 14.4718 31.548 15.4803L31.6559 15.7668H26.8147H21.9736V14.2616Z" fill="#EF95A9" stroke="#EF95A9"/>
<path d="M28.0654 33.1292C27.1337 32.1975 27.7835 30.7898 29.0929 30.9029C30.8041 31.0504 30.5774 33.475 28.852 33.475C28.4916 33.475 28.3481 33.4119 28.0654 33.1292Z" fill="white" stroke="white"/>
<path d="M5.03026 45.1318C2.91921 44.7793 1.16338 43.1364 0.67255 41.0554C0.446091 40.0947 0.440886 17.4631 0.66672 16.6139C1.02026 15.2858 2.05047 13.9472 3.18276 13.3449C4.31047 12.7447 5.4738 12.6583 11.5832 12.7199L14.1613 12.746V14.2493V15.7526L9.75234 15.7858L5.34359 15.8189L4.89943 16.1131C4.27401 16.527 3.98859 17.181 4.16213 17.8012C4.30651 18.3166 4.67151 18.7068 5.22568 18.9383C5.56818 19.0814 7.02193 19.1002 17.8298 19.101C25.698 19.1014 30.2878 19.1399 30.7238 19.2091C32.765 19.5322 34.6334 21.2856 34.9857 23.2079C35.0478 23.5476 35.0988 24.3095 35.0988 24.9006V25.9751L31.7915 25.977C28.029 25.9791 27.538 26.0416 26.1809 26.6924C24.5219 27.4879 23.2248 29.0672 22.8486 30.751C22.6086 31.8247 22.688 33.6026 23.0144 34.4647C23.5613 35.9083 24.6161 37.0801 25.9669 37.7451C27.1788 38.3418 27.4109 38.3683 31.4269 38.3697L35.0988 38.371L35.0971 39.3866C35.0944 41.2339 34.55 42.6618 33.449 43.7097C32.6703 44.4508 32.0763 44.7849 31.0888 45.0376C30.2948 45.2406 29.9559 45.2458 17.9207 45.2339C11.1265 45.227 5.32567 45.1812 5.03026 45.1318Z" fill="#EF95A9" stroke="#EF95A9"/>
<path d="M17.3382 17.0373C16.8268 16.8586 16.3836 16.4681 16.1547 15.9942C15.9478 15.5659 15.9405 15.4002 15.9616 11.7302C15.9736 9.63002 16.0147 7.93128 16.0528 7.95461C16.2336 8.06648 16.293 9.15732 16.2947 12.3904L16.2966 15.8988L16.6091 16.2279C17.3034 16.9596 18.1426 17.1413 18.8247 16.7079C19.8647 16.0471 19.8803 15.9709 19.8857 11.5181C19.8889 9.00606 19.9264 7.77814 20.0014 7.73189C20.0791 7.68377 20.1024 8.85169 20.0795 11.6581L20.0466 15.6527L19.7616 16.1375C19.2843 16.9498 18.2191 17.3454 17.3382 17.0373Z" fill="#AD2353" stroke="#AD2353"/>
<path d="M17.2861 16.7514C17.0857 16.6445 16.7809 16.4091 16.609 16.2278L16.2965 15.8989L16.2946 12.3905C16.293 8.90284 16.2474 8.2093 15.9969 7.87264C15.8034 7.61222 15.3626 7.72138 15.3567 8.03138C15.3555 8.09804 15.2698 8.13825 15.1665 8.12054C15.0632 8.10262 14.8301 8.20054 14.648 8.33804C14.0174 8.81492 13.143 8.76597 12.5515 7.72347C12.8148 7.51368 12.8226 7.48179 12.6967 7.13409C12.5832 6.81992 12.5907 6.68117 12.7471 6.18367C12.848 5.86304 12.9774 5.60076 13.0344 5.60076C13.2215 5.60076 13.7474 5.14826 14.6653 4.19763C15.9049 2.91388 16.6934 2.16867 16.8173 2.16388C16.8746 2.16138 17.0386 2.03596 17.1819 1.88492C17.3253 1.73388 17.5946 1.54659 17.7809 1.46888C17.9671 1.39096 18.1194 1.26284 18.1194 1.18451C18.1194 0.984714 18.5651 0.921173 18.9199 1.07055C19.0834 1.1393 19.3709 1.37034 19.5586 1.5843C19.754 1.80701 19.9615 1.94992 20.0438 1.91825C20.5253 1.93658 20.3469 2.44617 20.4511 2.47576C20.4017 2.47576 21.0926 3.21409 21.9857 4.11638C24.0621 6.21367 24.0871 6.25034 24.068 7.18055C24.0517 7.97659 23.9294 8.22846 23.3746 8.60971C22.5846 9.15304 21.7074 8.97409 20.6609 8.05659C20.2609 7.70597 20.0999 7.62033 20.0099 7.71033C19.9244 7.79554 19.8888 8.89033 19.8857 11.533C19.8803 15.9693 19.8642 16.0474 18.8246 16.708C18.3549 17.0066 17.7944 17.0222 17.2861 16.7514Z" fill="#AD2353" stroke="#AD2353"/>
<path d="M12.8399 8.73157C12.0224 8.36032 11.578 7.27553 11.8713 6.36803C11.9707 6.06116 12.5751 5.38511 14.4095 3.53074C17.2511 0.657821 17.4499 0.494905 18.109 0.500113C18.3726 0.502196 18.6888 0.56053 18.8115 0.630321C19.1699 0.83303 23.9097 5.73553 24.0959 6.09594C24.2759 6.44386 24.3111 7.28449 24.1601 7.63178C24.098 7.77532 24.0718 7.62407 24.0765 7.14574C24.0853 6.25574 24.0426 6.19345 21.9857 4.11615C21.0926 3.21386 20.4043 2.47553 20.4565 2.47553C20.5088 2.47553 20.4415 2.35845 20.307 2.21511C20.1724 2.07178 20.0222 1.9547 19.973 1.9547C19.924 1.9547 19.7338 1.78365 19.5505 1.5749C19.3672 1.36595 19.0834 1.13907 18.9199 1.07032C18.5651 0.920946 18.1195 0.984487 18.1195 1.18428C18.1195 1.26261 17.9672 1.39074 17.7809 1.46865C17.5947 1.54636 17.3253 1.73365 17.182 1.8847C17.0386 2.03574 16.8747 2.16115 16.8174 2.16365C16.6934 2.16844 15.9049 2.91366 14.6653 4.19741C13.7474 5.14803 13.2215 5.60053 13.0345 5.60053C12.9774 5.60053 12.848 5.86281 12.7472 6.18344C12.5907 6.68094 12.5832 6.81969 12.6968 7.13386C12.8226 7.48157 12.8149 7.51344 12.5661 8.22157C13.1399 8.76261 14.0174 8.8147 14.6397 8.34407C14.817 8.21032 15.0015 8.10054 15.6076 7.74762C15.523 7.99033 14.5586 8.72115 14.1861 8.82448C13.6336 8.97802 13.3378 8.95761 12.8399 8.73157Z" fill="#AD2353" stroke="#AD2353"/>
</svg>
